<?xml version="1.0" encoding="UTF-8"?>
<svg xmlns="http://www.w3.org/2000/svg" viewBox="259.92 327.96 920.52 154.44">
<path fill-rule="nonzero" fill="rgb(227,230,255)" fill-opacity="1" d="M 1320.632812 540.363281 L 1316.296875 540.363281 L 1316.296875 563.789062 L 1320.632812 563.789062 Z M 1320.632812 540.363281 "/>
<path fill-rule="nonzero" fill="rgb(227,230,255)" fill-opacity="1" d="M 1329.472656 547.769531 L 1339.285156 563.789062 L 1343.789062 563.789062 L 1343.789062 540.367188 L 1339.457031 540.367188 L 1339.457031 556.363281 L 1329.605469 540.367188 L 1325.136719 540.367188 L 1325.136719 563.789062 L 1329.472656 563.789062 Z M 1329.472656 547.769531 "/>
<path fill-rule="nonzero" fill="rgb(227,230,255)" fill-opacity="1" d="M 1353.671875 563.789062 L 1358.074219 563.789062 L 1358.074219 544.265625 L 1365.296875 544.265625 L 1365.296875 540.367188 L 1346.410156 540.367188 L 1346.410156 544.265625 L 1353.671875 544.265625 Z M 1353.671875 563.789062 "/>
<path fill-rule="nonzero" fill="rgb(227,230,255)" fill-opacity="1" d="M 1383.515625 559.890625 L 1372.257812 559.890625 L 1372.257812 553.707031 L 1382.777344 553.707031 L 1382.777344 549.84375 L 1372.257812 549.84375 L 1372.257812 544.265625 L 1383.515625 544.265625 L 1383.515625 540.363281 L 1367.921875 540.363281 L 1367.921875 563.789062 L 1383.515625 563.789062 Z M 1383.515625 559.890625 "/>
<path fill-rule="nonzero" fill="rgb(227,230,255)" fill-opacity="1" d="M 1402.539062 562.648438 C 1402.980469 562.292969 1403.34375 561.855469 1403.667969 561.390625 L 1404.050781 563.792969 L 1407.882812 563.792969 L 1407.882812 551.054688 L 1398.269531 551.054688 L 1398.269531 554.953125 L 1403.886719 554.953125 C 1403.789062 555.605469 1403.648438 556.199219 1403.429688 556.699219 C 1403.035156 557.59375 1402.519531 558.296875 1401.882812 558.800781 C 1401.242188 559.304688 1400.542969 559.65625 1399.78125 559.859375 C 1399.019531 560.058594 1398.28125 560.164062 1397.5625 560.164062 C 1396.175781 560.164062 1394.960938 559.835938 1393.917969 559.1875 C 1392.875 558.535156 1392.082031 557.605469 1391.53125 556.398438 C 1390.984375 555.1875 1390.707031 553.742188 1390.707031 552.0625 C 1390.707031 550.382812 1390.984375 548.941406 1391.53125 547.742188 C 1392.082031 546.542969 1392.875 545.621094 1393.917969 544.972656 C 1394.960938 544.320312 1396.175781 543.996094 1397.5625 543.996094 C 1399.089844 543.996094 1400.382812 544.375 1401.445312 545.136719 C 1402.507812 545.898438 1403.289062 546.964844 1403.78125 548.332031 L 1407.882812 546.816406 C 1407.097656 544.644531 1405.804688 542.9375 1404 541.691406 C 1402.195312 540.449219 1400.050781 539.828125 1397.5625 539.828125 C 1395.347656 539.828125 1393.390625 540.34375 1391.699219 541.375 C 1390.007812 542.402344 1388.691406 543.832031 1387.75 545.65625 C 1386.808594 547.484375 1386.339844 549.617188 1386.339844 552.0625 C 1386.339844 554.503906 1386.808594 556.644531 1387.75 558.480469 C 1388.691406 560.320312 1389.980469 561.753906 1391.617188 562.78125 C 1393.25 563.8125 1395.144531 564.328125 1397.296875 564.328125 C 1398.324219 564.328125 1399.285156 564.1875 1400.167969 563.90625 C 1401.054688 563.628906 1401.84375 563.207031 1402.539062 562.648438 "/>
<path fill-rule="nonzero" fill="rgb(227,230,255)" fill-opacity="1" d="M 1416.316406 544.265625 L 1419.273438 544.265625 C 1420.015625 544.265625 1420.691406 544.335938 1421.308594 544.484375 C 1421.925781 544.628906 1422.421875 544.914062 1422.804688 545.339844 C 1423.1875 545.765625 1423.375 546.390625 1423.375 547.222656 C 1423.375 548.027344 1423.1875 548.652344 1422.804688 549.085938 C 1422.421875 549.523438 1421.925781 549.824219 1421.308594 549.996094 C 1420.691406 550.164062 1420.015625 550.246094 1419.273438 550.246094 L 1416.316406 550.246094 Z M 1416.316406 554.144531 L 1419.132812 554.144531 L 1424.722656 563.789062 L 1429.730469 563.789062 L 1423.546875 553.550781 C 1424.460938 553.21875 1425.246094 552.757812 1425.878906 552.144531 C 1427.101562 550.96875 1427.710938 549.304688 1427.710938 547.15625 C 1427.710938 545.765625 1427.4375 544.5625 1426.890625 543.542969 C 1426.339844 542.523438 1425.480469 541.738281 1424.316406 541.1875 C 1423.152344 540.640625 1421.613281 540.363281 1419.710938 540.363281 L 1411.984375 540.363281 L 1411.984375 563.789062 L 1416.316406 563.789062 Z M 1416.316406 554.144531 "/>
<path fill-rule="nonzero" fill="rgb(227,230,255)" fill-opacity="1" d="M 1441.660156 546.785156 L 1444.796875 555.320312 L 1438.472656 555.320312 Z M 1437.015625 559.222656 L 1446.230469 559.222656 L 1447.910156 563.789062 L 1452.648438 563.789062 L 1443.238281 540.363281 L 1439.980469 540.363281 L 1430.570312 563.789062 L 1435.308594 563.789062 Z M 1437.015625 559.222656 "/>
<path fill-rule="nonzero" fill="rgb(227,230,255)" fill-opacity="1" d="M 1457.421875 563.789062 L 1461.824219 563.789062 L 1461.824219 544.265625 L 1469.050781 544.265625 L 1469.050781 540.367188 L 1450.164062 540.367188 L 1450.164062 544.265625 L 1457.421875 544.265625 Z M 1457.421875 563.789062 "/>
<path fill-rule="nonzero" fill="rgb(227,230,255)" fill-opacity="1" d="M 1487.265625 559.890625 L 1476.007812 559.890625 L 1476.007812 553.707031 L 1486.527344 553.707031 L 1486.527344 549.84375 L 1476.007812 549.84375 L 1476.007812 544.265625 L 1487.265625 544.265625 L 1487.265625 540.363281 L 1471.671875 540.363281 L 1471.671875 563.789062 L 1487.265625 563.789062 Z M 1487.265625 559.890625 "/>
<path fill-rule="nonzero" fill="rgb(227,230,255)" fill-opacity="1" d="M 1504.792969 556.765625 C 1504.132812 557.886719 1503.1875 558.671875 1501.953125 559.117188 C 1500.722656 559.566406 1499.21875 559.792969 1497.449219 559.792969 L 1495.433594 559.792969 L 1495.433594 544.363281 L 1497.851562 544.363281 C 1499.511719 544.363281 1500.929688 544.605469 1502.105469 545.085938 C 1503.28125 545.570312 1504.1875 546.378906 1504.828125 547.507812 C 1505.464844 548.640625 1505.785156 550.167969 1505.785156 552.09375 C 1505.785156 554.089844 1505.453125 555.644531 1504.792969 556.765625 M 1510.152344 552.261719 C 1510.152344 548.453125 1509.089844 545.519531 1506.960938 543.457031 C 1504.832031 541.398438 1501.820312 540.363281 1497.921875 540.363281 L 1491.097656 540.363281 L 1491.097656 563.789062 L 1497.886719 563.789062 C 1501.855469 563.789062 1504.890625 562.800781 1506.996094 560.816406 C 1509.101562 558.832031 1510.152344 555.980469 1510.152344 552.261719 "/>
<path fill-rule="nonzero" fill="rgb(227,230,255)" fill-opacity="1" d="M 1325.773438 602.707031 L 1330.5 587.003906 L 1335.253906 602.707031 L 1339.453125 602.707031 L 1346.511719 579.28125 L 1341.972656 579.28125 L 1337.101562 596.054688 L 1332.664062 580.625 L 1328.363281 580.625 L 1323.890625 596.054688 L 1319.054688 579.28125 L 1314.484375 579.28125 L 1321.539062 602.707031 Z M 1325.773438 602.707031 "/>
<path fill-rule="nonzero" fill="rgb(227,230,255)" fill-opacity="1" d="M 1362.460938 598.085938 C 1361.441406 598.746094 1360.222656 599.078125 1358.8125 599.078125 C 1357.425781 599.078125 1356.214844 598.753906 1355.183594 598.101562 C 1354.152344 597.453125 1353.355469 596.523438 1352.796875 595.3125 C 1352.238281 594.101562 1351.957031 592.667969 1351.957031 591.011719 C 1351.957031 589.332031 1352.238281 587.886719 1352.796875 586.671875 C 1353.355469 585.464844 1354.152344 584.535156 1355.183594 583.886719 C 1356.214844 583.238281 1357.425781 582.910156 1358.8125 582.910156 C 1360.222656 582.910156 1361.441406 583.242188 1362.460938 583.902344 C 1363.480469 584.5625 1364.269531 585.5 1364.828125 586.707031 C 1365.390625 587.917969 1365.671875 589.355469 1365.671875 591.011719 C 1365.671875 592.648438 1365.390625 594.070312 1364.828125 595.277344 C 1364.269531 596.488281 1363.480469 597.421875 1362.460938 598.085938 M 1368.644531 597.429688 C 1369.597656 595.59375 1370.074219 593.453125 1370.074219 591.011719 C 1370.074219 588.546875 1369.601562 586.394531 1368.660156 584.558594 C 1367.71875 582.722656 1366.402344 581.292969 1364.710938 580.273438 C 1363.019531 579.253906 1361.054688 578.742188 1358.8125 578.742188 C 1356.59375 578.742188 1354.640625 579.253906 1352.949219 580.273438 C 1351.257812 581.292969 1349.941406 582.722656 1349 584.558594 C 1348.058594 586.394531 1347.589844 588.546875 1347.589844 591.011719 C 1347.589844 593.453125 1348.058594 595.59375 1349 597.429688 C 1349.941406 599.269531 1351.257812 600.695312 1352.949219 601.714844 C 1354.640625 602.734375 1356.59375 603.242188 1358.8125 603.242188 C 1361.03125 603.242188 1362.984375 602.734375 1364.679688 601.714844 C 1366.371094 600.695312 1367.691406 599.269531 1368.644531 597.429688 "/>
<path fill-rule="nonzero" fill="rgb(227,230,255)" fill-opacity="1" d="M 1389.933594 595.277344 C 1389.375 596.488281 1388.582031 597.425781 1387.566406 598.085938 C 1386.546875 598.746094 1385.328125 599.078125 1383.917969 599.078125 C 1382.53125 599.078125 1381.320312 598.753906 1380.289062 598.101562 C 1379.257812 597.453125 1378.464844 596.523438 1377.902344 595.3125 C 1377.34375 594.101562 1377.0625 592.667969 1377.0625 591.007812 C 1377.0625 589.332031 1377.34375 587.886719 1377.902344 586.675781 C 1378.464844 585.464844 1379.257812 584.535156 1380.289062 583.886719 C 1381.320312 583.234375 1382.53125 582.910156 1383.917969 582.910156 C 1385.328125 582.910156 1386.546875 583.242188 1387.566406 583.902344 C 1388.582031 584.5625 1389.375 585.5 1389.933594 586.707031 C 1390.496094 587.917969 1390.777344 589.355469 1390.777344 591.007812 C 1390.777344 592.644531 1390.496094 594.070312 1389.933594 595.277344 M 1389.816406 580.273438 C 1388.125 579.253906 1386.160156 578.742188 1383.917969 578.742188 C 1381.699219 578.742188 1379.746094 579.253906 1378.054688 580.273438 C 1376.363281 581.292969 1375.046875 582.71875 1374.105469 584.558594 C 1373.164062 586.394531 1372.695312 588.546875 1372.695312 591.007812 C 1372.695312 593.453125 1373.164062 595.59375 1374.105469 597.429688 C 1375.046875 599.269531 1376.363281 600.695312 1378.054688 601.714844 C 1379.746094 602.734375 1381.699219 603.242188 1383.917969 603.242188 C 1386.136719 603.242188 1388.089844 602.734375 1389.78125 601.714844 C 1391.476562 600.695312 1392.796875 599.269531 1393.75 597.429688 C 1394.703125 595.59375 1395.179688 593.453125 1395.179688 591.007812 C 1395.179688 588.546875 1394.707031 586.394531 1393.765625 584.558594 C 1392.824219 582.71875 1391.507812 581.292969 1389.816406 580.273438 "/>
<path fill-rule="nonzero" fill="rgb(227,230,255)" fill-opacity="1" d="M 1412.4375 595.683594 C 1411.773438 596.800781 1410.828125 597.585938 1409.597656 598.035156 C 1408.363281 598.484375 1406.863281 598.707031 1405.09375 598.707031 L 1403.078125 598.707031 L 1403.078125 583.28125 L 1405.496094 583.28125 C 1407.15625 583.28125 1408.570312 583.523438 1409.75 584.003906 C 1410.921875 584.484375 1411.832031 585.292969 1412.46875 586.425781 C 1413.109375 587.554688 1413.425781 589.082031 1413.425781 591.011719 C 1413.425781 593.003906 1413.097656 594.5625 1412.4375 595.683594 M 1405.5625 579.28125 L 1398.742188 579.28125 L 1398.742188 602.707031 L 1405.527344 602.707031 C 1409.496094 602.707031 1412.53125 601.714844 1414.636719 599.730469 C 1416.746094 597.746094 1417.796875 594.898438 1417.796875 591.179688 C 1417.796875 587.371094 1416.734375 584.433594 1414.605469 582.371094 C 1412.476562 580.3125 1409.460938 579.28125 1405.5625 579.28125 "/>
<path fill-rule="nonzero" fill="rgb(227,230,255)" fill-opacity="1" d="M 1441.492188 596.050781 L 1437.054688 580.625 L 1432.753906 580.625 L 1428.28125 596.050781 L 1423.445312 579.28125 L 1418.875 579.28125 L 1425.929688 602.707031 L 1430.167969 602.707031 L 1434.886719 587.003906 L 1439.644531 602.707031 L 1443.84375 602.707031 L 1450.902344 579.28125 L 1446.363281 579.28125 Z M 1441.492188 596.050781 "/>
<path fill-rule="nonzero" fill="rgb(227,230,255)" fill-opacity="1" d="M 1469.21875 595.277344 C 1468.660156 596.488281 1467.867188 597.425781 1466.847656 598.085938 C 1465.828125 598.746094 1464.613281 599.078125 1463.203125 599.078125 C 1461.8125 599.078125 1460.601562 598.753906 1459.574219 598.101562 C 1458.542969 597.453125 1457.746094 596.523438 1457.183594 595.3125 C 1456.625 594.101562 1456.347656 592.667969 1456.347656 591.007812 C 1456.347656 589.332031 1456.625 587.886719 1457.183594 586.675781 C 1457.746094 585.464844 1458.542969 584.535156 1459.574219 583.886719 C 1460.601562 583.234375 1461.8125 582.910156 1463.203125 582.910156 C 1464.613281 582.910156 1465.828125 583.242188 1466.847656 583.902344 C 1467.867188 584.5625 1468.660156 585.5 1469.21875 586.707031 C 1469.78125 587.917969 1470.058594 589.355469 1470.058594 591.007812 C 1470.058594 592.644531 1469.78125 594.070312 1469.21875 595.277344 M 1469.101562 580.273438 C 1467.410156 579.253906 1465.441406 578.742188 1463.203125 578.742188 C 1460.984375 578.742188 1459.03125 579.253906 1457.335938 580.273438 C 1455.644531 581.292969 1454.328125 582.71875 1453.390625 584.558594 C 1452.449219 586.394531 1451.976562 588.546875 1451.976562 591.007812 C 1451.976562 593.453125 1452.449219 595.59375 1453.390625 597.429688 C 1454.328125 599.269531 1455.644531 600.695312 1457.335938 601.714844 C 1459.03125 602.734375 1460.984375 603.242188 1463.203125 603.242188 C 1465.421875 603.242188 1467.375 602.734375 1469.066406 601.714844 C 1470.757812 600.695312 1472.082031 599.269531 1473.035156 597.429688 C 1473.984375 595.59375 1474.460938 593.453125 1474.460938 591.007812 C 1474.460938 588.546875 1473.992188 586.394531 1473.050781 584.558594 C 1472.109375 582.71875 1470.792969 581.292969 1469.101562 580.273438 "/>
<path fill-rule="nonzero" fill="rgb(227,230,255)" fill-opacity="1" d="M 1488.847656 588.003906 C 1488.464844 588.441406 1487.96875 588.742188 1487.351562 588.910156 C 1486.734375 589.078125 1486.058594 589.160156 1485.316406 589.160156 L 1482.359375 589.160156 L 1482.359375 583.179688 L 1485.316406 583.179688 C 1486.058594 583.179688 1486.734375 583.253906 1487.351562 583.398438 C 1487.96875 583.542969 1488.464844 583.828125 1488.847656 584.257812 C 1489.230469 584.679688 1489.417969 585.308594 1489.417969 586.136719 C 1489.417969 586.945312 1489.230469 587.566406 1488.847656 588.003906 M 1491.921875 591.058594 C 1493.144531 589.886719 1493.753906 588.21875 1493.753906 586.070312 C 1493.753906 584.679688 1493.480469 583.476562 1492.933594 582.457031 C 1492.382812 581.4375 1491.523438 580.65625 1490.359375 580.105469 C 1489.195312 579.554688 1487.65625 579.28125 1485.753906 579.28125 L 1478.023438 579.28125 L 1478.023438 602.707031 L 1482.359375 602.707031 L 1482.359375 593.0625 L 1485.117188 593.0625 C 1485.136719 593.0625 1485.152344 593.058594 1485.171875 593.058594 L 1490.765625 602.707031 L 1495.773438 602.707031 L 1489.589844 592.464844 C 1490.503906 592.136719 1491.289062 591.671875 1491.921875 591.058594 "/>
<path fill-rule="nonzero" fill="rgb(227,230,255)" fill-opacity="1" d="M 1518.121094 579.28125 L 1512.273438 579.28125 L 1502.863281 589.214844 L 1502.863281 579.28125 L 1498.527344 579.28125 L 1498.527344 602.707031 L 1502.863281 602.707031 L 1502.863281 594.761719 L 1506.042969 591.535156 L 1513.042969 602.707031 L 1518.1875 602.707031 L 1509.175781 588.359375 Z M 1518.121094 579.28125 "/>
<path fill-rule="nonzero" fill="rgb(227,230,255)" fill-opacity="1" d="M 1520.808594 602.707031 L 1525.144531 602.707031 L 1525.144531 579.28125 L 1520.808594 579.28125 Z M 1520.808594 602.707031 "/>
<path fill-rule="nonzero" fill="rgb(227,230,255)" fill-opacity="1" d="M 1543.964844 595.28125 L 1534.117188 579.28125 L 1529.648438 579.28125 L 1529.648438 602.707031 L 1533.984375 602.707031 L 1533.984375 586.683594 L 1543.796875 602.707031 L 1548.300781 602.707031 L 1548.300781 579.28125 L 1543.964844 579.28125 Z M 1543.964844 595.28125 "/>
<path fill-rule="nonzero" fill="rgb(227,230,255)" fill-opacity="1" d="M 1563.792969 593.867188 L 1569.410156 593.867188 C 1569.316406 594.519531 1569.171875 595.117188 1568.953125 595.617188 C 1568.5625 596.511719 1568.046875 597.210938 1567.40625 597.714844 C 1566.769531 598.21875 1566.070312 598.574219 1565.308594 598.773438 C 1564.542969 598.976562 1563.808594 599.078125 1563.089844 599.078125 C 1561.699219 599.078125 1560.484375 598.753906 1559.441406 598.101562 C 1558.398438 597.453125 1557.605469 596.523438 1557.054688 595.3125 C 1556.507812 594.101562 1556.234375 592.660156 1556.234375 590.976562 C 1556.234375 589.296875 1556.507812 587.855469 1557.054688 586.660156 C 1557.605469 585.460938 1558.398438 584.535156 1559.441406 583.886719 C 1560.484375 583.234375 1561.699219 582.910156 1563.089844 582.910156 C 1564.613281 582.910156 1565.90625 583.292969 1566.972656 584.054688 C 1568.035156 584.816406 1568.8125 585.878906 1569.308594 587.246094 L 1573.40625 585.734375 C 1572.621094 583.5625 1571.328125 581.851562 1569.527344 580.609375 C 1567.722656 579.367188 1565.578125 578.746094 1563.089844 578.746094 C 1560.871094 578.746094 1558.914062 579.257812 1557.226562 580.289062 C 1555.53125 581.320312 1554.21875 582.746094 1553.273438 584.574219 C 1552.332031 586.398438 1551.863281 588.535156 1551.863281 590.976562 C 1551.863281 593.421875 1552.332031 595.5625 1553.273438 597.394531 C 1554.21875 599.234375 1555.503906 600.667969 1557.140625 601.699219 C 1558.777344 602.730469 1560.667969 603.246094 1562.820312 603.246094 C 1563.851562 603.246094 1564.808594 603.105469 1565.695312 602.824219 C 1566.578125 602.546875 1567.371094 602.125 1568.0625 601.5625 C 1568.507812 601.207031 1568.867188 600.773438 1569.195312 600.304688 L 1569.578125 602.707031 L 1573.40625 602.707031 L 1573.40625 589.96875 L 1563.792969 589.96875 Z M 1563.792969 593.867188 "/>
<path fill-rule="nonzero" fill="rgb(227,230,255)" fill-opacity="1" d="M 1329.152344 629.488281 C 1328.175781 628.839844 1326.964844 628.246094 1325.507812 627.707031 C 1324.40625 627.304688 1323.519531 626.917969 1322.835938 626.550781 C 1322.148438 626.179688 1321.660156 625.792969 1321.355469 625.390625 C 1321.054688 624.984375 1320.902344 624.527344 1320.902344 624.011719 C 1320.902344 623.519531 1321.03125 623.085938 1321.289062 622.71875 C 1321.546875 622.347656 1321.894531 622.058594 1322.332031 621.84375 C 1322.769531 621.632812 1323.265625 621.523438 1323.824219 621.523438 C 1324.609375 621.523438 1325.320312 621.742188 1325.960938 622.179688 C 1326.601562 622.617188 1327.152344 623.261719 1327.625 624.109375 L 1331.085938 621.996094 C 1330.34375 620.5625 1329.367188 619.480469 1328.144531 618.75 C 1326.921875 618.023438 1325.527344 617.660156 1323.960938 617.660156 C 1322.480469 617.660156 1321.1875 617.9375 1320.082031 618.496094 C 1318.96875 619.058594 1318.105469 619.820312 1317.492188 620.785156 C 1316.875 621.746094 1316.566406 622.859375 1316.566406 624.109375 C 1316.566406 625.300781 1316.8125 626.328125 1317.304688 627.203125 C 1317.800781 628.078125 1318.546875 628.847656 1319.542969 629.507812 C 1320.535156 630.167969 1321.777344 630.789062 1323.253906 631.371094 C 1324.285156 631.753906 1325.140625 632.125 1325.824219 632.480469 C 1326.507812 632.839844 1327.019531 633.234375 1327.355469 633.65625 C 1327.691406 634.082031 1327.859375 634.585938 1327.859375 635.167969 C 1327.859375 635.796875 1327.695312 636.339844 1327.375 636.800781 C 1327.046875 637.257812 1326.609375 637.605469 1326.0625 637.839844 C 1325.511719 638.074219 1324.890625 638.195312 1324.195312 638.195312 C 1322.894531 638.195312 1321.804688 637.835938 1320.917969 637.121094 C 1320.03125 636.402344 1319.46875 635.324219 1319.222656 633.894531 L 1314.988281 634.933594 C 1315.324219 637.082031 1316.292969 638.808594 1317.894531 640.109375 C 1319.496094 641.410156 1321.539062 642.058594 1324.027344 642.058594 C 1325.660156 642.058594 1327.085938 641.757812 1328.296875 641.152344 C 1329.507812 640.546875 1330.453125 639.703125 1331.136719 638.613281 C 1331.820312 637.527344 1332.160156 636.289062 1332.160156 634.902344 C 1332.160156 633.667969 1331.902344 632.621094 1331.390625 631.757812 C 1330.871094 630.894531 1330.128906 630.140625 1329.152344 629.488281 "/>
<path fill-rule="nonzero" fill="rgb(227,230,255)" fill-opacity="1" d="M 1351.921875 634.195312 C 1351.363281 635.40625 1350.570312 636.339844 1349.554688 637 C 1348.535156 637.664062 1347.316406 637.992188 1345.90625 637.992188 C 1344.515625 637.992188 1343.308594 637.667969 1342.277344 637.019531 C 1341.246094 636.367188 1340.453125 635.4375 1339.890625 634.226562 C 1339.332031 633.015625 1339.050781 631.585938 1339.050781 629.925781 C 1339.050781 628.246094 1339.332031 626.800781 1339.890625 625.589844 C 1340.453125 624.378906 1341.246094 623.453125 1342.277344 622.800781 C 1343.308594 622.152344 1344.515625 621.824219 1345.90625 621.824219 C 1347.316406 621.824219 1348.535156 622.15625 1349.554688 622.816406 C 1350.570312 623.476562 1351.363281 624.414062 1351.921875 625.625 C 1352.484375 626.832031 1352.761719 628.269531 1352.761719 629.925781 C 1352.761719 631.5625 1352.484375 632.984375 1351.921875 634.195312 M 1351.804688 619.1875 C 1350.113281 618.167969 1348.148438 617.660156 1345.90625 617.660156 C 1343.6875 617.660156 1341.734375 618.167969 1340.042969 619.1875 C 1338.347656 620.207031 1337.035156 621.636719 1336.09375 623.472656 C 1335.152344 625.308594 1334.679688 627.460938 1334.679688 629.925781 C 1334.679688 632.367188 1335.152344 634.507812 1336.09375 636.34375 C 1337.035156 638.183594 1338.347656 639.613281 1340.042969 640.632812 C 1341.734375 641.648438 1343.6875 642.160156 1345.90625 642.160156 C 1348.125 642.160156 1350.078125 641.648438 1351.769531 640.632812 C 1353.460938 639.613281 1354.785156 638.183594 1355.738281 636.34375 C 1356.691406 634.507812 1357.164062 632.367188 1357.164062 629.925781 C 1357.164062 627.460938 1356.695312 625.308594 1355.753906 623.472656 C 1354.8125 621.636719 1353.496094 620.207031 1351.804688 619.1875 "/>
<path fill-rule="nonzero" fill="rgb(227,230,255)" fill-opacity="1" d="M 1365.066406 618.195312 L 1360.730469 618.195312 L 1360.730469 641.621094 L 1375.046875 641.621094 L 1375.046875 637.722656 L 1365.066406 637.722656 Z M 1365.066406 618.195312 "/>
<path fill-rule="nonzero" fill="rgb(227,230,255)" fill-opacity="1" d="M 1390.707031 632.683594 C 1390.707031 633.871094 1390.574219 634.871094 1390.304688 635.691406 C 1390.035156 636.507812 1389.558594 637.125 1388.875 637.539062 C 1388.191406 637.953125 1387.246094 638.160156 1386.035156 638.160156 C 1384.824219 638.160156 1383.878906 637.953125 1383.195312 637.539062 C 1382.511719 637.125 1382.042969 636.507812 1381.785156 635.691406 C 1381.527344 634.871094 1381.398438 633.859375 1381.398438 632.648438 L 1381.398438 618.195312 L 1377.0625 618.195312 L 1377.0625 633.152344 C 1377.0625 636.15625 1377.820312 638.40625 1379.328125 639.910156 C 1380.84375 641.410156 1383.078125 642.160156 1386.035156 642.160156 C 1388.992188 642.160156 1391.234375 641.394531 1392.757812 639.859375 C 1394.28125 638.324219 1395.042969 636.03125 1395.042969 632.984375 L 1395.042969 618.195312 L 1390.707031 618.195312 Z M 1390.707031 632.683594 "/>
<path fill-rule="nonzero" fill="rgb(227,230,255)" fill-opacity="1" d="M 1397.464844 622.09375 L 1404.722656 622.09375 L 1404.722656 641.621094 L 1409.125 641.621094 L 1409.125 622.09375 L 1416.351562 622.09375 L 1416.351562 618.195312 L 1397.464844 618.195312 Z M 1397.464844 622.09375 "/>
<path fill-rule="nonzero" fill="rgb(227,230,255)" fill-opacity="1" d="M 1418.972656 641.621094 L 1423.308594 641.621094 L 1423.308594 618.195312 L 1418.972656 618.195312 Z M 1418.972656 641.621094 "/>
<path fill-rule="nonzero" fill="rgb(227,230,255)" fill-opacity="1" d="M 1444.113281 634.195312 C 1443.554688 635.40625 1442.761719 636.339844 1441.742188 637 C 1440.722656 637.664062 1439.507812 637.992188 1438.097656 637.992188 C 1436.707031 637.992188 1435.496094 637.667969 1434.46875 637.019531 C 1433.4375 636.367188 1432.640625 635.4375 1432.082031 634.226562 C 1431.519531 633.015625 1431.242188 631.585938 1431.242188 629.925781 C 1431.242188 628.246094 1431.519531 626.800781 1432.082031 625.589844 C 1432.640625 624.378906 1433.4375 623.453125 1434.46875 622.800781 C 1435.496094 622.152344 1436.707031 621.824219 1438.097656 621.824219 C 1439.507812 621.824219 1440.722656 622.15625 1441.742188 622.816406 C 1442.761719 623.476562 1443.554688 624.414062 1444.113281 625.625 C 1444.671875 626.832031 1444.953125 628.269531 1444.953125 629.925781 C 1444.953125 631.5625 1444.671875 632.984375 1444.113281 634.195312 M 1443.996094 619.1875 C 1442.300781 618.167969 1440.335938 617.660156 1438.097656 617.660156 C 1435.878906 617.660156 1433.921875 618.167969 1432.230469 619.1875 C 1430.539062 620.207031 1429.222656 621.636719 1428.285156 623.472656 C 1427.339844 625.308594 1426.871094 627.460938 1426.871094 629.925781 C 1426.871094 632.367188 1427.339844 634.507812 1428.285156 636.34375 C 1429.222656 638.183594 1430.539062 639.613281 1432.230469 640.632812 C 1433.921875 641.648438 1435.878906 642.160156 1438.097656 642.160156 C 1440.316406 642.160156 1442.269531 641.648438 1443.960938 640.632812 C 1445.652344 639.613281 1446.976562 638.183594 1447.925781 636.34375 C 1448.878906 634.507812 1449.355469 632.367188 1449.355469 629.925781 C 1449.355469 627.460938 1448.882812 625.308594 1447.945312 623.472656 C 1447.003906 621.636719 1445.6875 620.207031 1443.996094 619.1875 "/>
<path fill-rule="nonzero" fill="rgb(227,230,255)" fill-opacity="1" d="M 1467.234375 634.195312 L 1457.386719 618.195312 L 1452.917969 618.195312 L 1452.917969 641.625 L 1457.253906 641.625 L 1457.253906 625.601562 L 1467.066406 641.625 L 1471.570312 641.625 L 1471.570312 618.195312 L 1467.234375 618.195312 Z M 1467.234375 634.195312 "/>
<path fill-rule="nonzero" fill="rgb(227,230,255)" fill-opacity="1" d="M 1488.929688 629.488281 C 1487.957031 628.839844 1486.742188 628.246094 1485.285156 627.707031 C 1484.1875 627.304688 1483.296875 626.917969 1482.613281 626.550781 C 1481.929688 626.179688 1481.4375 625.792969 1481.132812 625.390625 C 1480.832031 624.984375 1480.679688 624.527344 1480.679688 624.011719 C 1480.679688 623.519531 1480.808594 623.085938 1481.066406 622.71875 C 1481.324219 622.347656 1481.671875 622.058594 1482.109375 621.84375 C 1482.546875 621.632812 1483.042969 621.523438 1483.601562 621.523438 C 1484.386719 621.523438 1485.097656 621.742188 1485.738281 622.179688 C 1486.375 622.617188 1486.933594 623.261719 1487.402344 624.109375 L 1490.863281 621.996094 C 1490.125 620.5625 1489.144531 619.480469 1487.921875 618.75 C 1486.699219 618.023438 1485.308594 617.660156 1483.738281 617.660156 C 1482.257812 617.660156 1480.964844 617.9375 1479.855469 618.496094 C 1478.746094 619.058594 1477.882812 619.820312 1477.269531 620.785156 C 1476.652344 621.746094 1476.34375 622.859375 1476.34375 624.109375 C 1476.34375 625.300781 1476.589844 626.328125 1477.082031 627.203125 C 1477.578125 628.078125 1478.324219 628.847656 1479.320312 629.507812 C 1480.316406 630.167969 1481.554688 630.789062 1483.035156 631.371094 C 1484.0625 631.753906 1484.917969 632.125 1485.601562 632.480469 C 1486.289062 632.839844 1486.796875 633.234375 1487.132812 633.65625 C 1487.46875 634.082031 1487.636719 634.585938 1487.636719 635.167969 C 1487.636719 635.796875 1487.472656 636.339844 1487.148438 636.800781 C 1486.824219 637.257812 1486.386719 637.605469 1485.839844 637.839844 C 1485.289062 638.074219 1484.667969 638.195312 1483.972656 638.195312 C 1482.671875 638.195312 1481.582031 637.835938 1480.699219 637.121094 C 1479.8125 636.402344 1479.246094 635.324219 1479 633.894531 L 1474.765625 634.933594 C 1475.101562 637.082031 1476.070312 638.808594 1477.671875 640.109375 C 1479.273438 641.410156 1481.316406 642.058594 1483.804688 642.058594 C 1485.441406 642.058594 1486.863281 641.757812 1488.074219 641.152344 C 1489.285156 640.546875 1490.230469 639.703125 1490.914062 638.613281 C 1491.597656 637.527344 1491.941406 636.289062 1491.941406 634.902344 C 1491.941406 633.667969 1491.679688 632.621094 1491.167969 631.757812 C 1490.648438 630.894531 1489.90625 630.140625 1488.929688 629.488281 "/>
<path fill-rule="nonzero" fill="rgb(227,230,255)" fill-opacity="1" d="M 544.730469 548.179688 L 448.925781 642.328125 L 486 642.328125 L 565.445312 564.621094 C 566.445312 563.742188 567.550781 563.3125 568.859375 563.3125 L 584.53125 563.3125 L 584.53125 642.332031 L 610.953125 642.332031 L 610.953125 540 L 564.8125 540 C 557.265625 540 550.515625 542.761719 544.730469 548.179688 "/>
<path fill-rule="nonzero" fill="rgb(227,230,255)" fill-opacity="1" d="M 1177.277344 540 L 1131.136719 540 L 1131.136719 642.332031 L 1157.558594 642.332031 L 1157.558594 563.3125 L 1173.230469 563.3125 C 1174.535156 563.3125 1175.640625 563.742188 1176.644531 564.621094 L 1256.089844 642.328125 L 1293.164062 642.328125 L 1197.359375 548.179688 C 1191.570312 542.761719 1184.824219 540 1177.277344 540 "/>
<path fill-rule="nonzero" fill="rgb(227,230,255)" fill-opacity="1" d="M 798.558594 563.3125 L 859.390625 563.3125 L 859.390625 642.332031 L 882.695312 642.332031 L 882.695312 563.3125 L 943.53125 563.3125 L 943.53125 540 L 798.558594 540 Z M 798.558594 563.3125 "/>
<path fill-rule="nonzero" fill="rgb(227,230,255)" fill-opacity="1" d="M 974.050781 548.988281 C 967.945312 554.953125 964.847656 562.257812 964.847656 570.699219 L 964.847656 611.53125 C 964.847656 620.039062 967.945312 627.378906 974.050781 633.34375 C 980.148438 639.308594 987.585938 642.332031 996.152344 642.332031 L 1109.820312 642.332031 L 1109.820312 619.03125 L 996.152344 619.03125 C 994.804688 619.03125 993.699219 618.574219 992.765625 617.640625 C 991.832031 616.707031 991.378906 615.632812 991.378906 614.351562 L 991.378906 602.820312 L 1097.027344 602.820312 L 1097.027344 579.515625 L 991.378906 579.515625 L 991.378906 567.980469 C 991.378906 566.703125 991.832031 565.625 992.765625 564.691406 C 993.699219 563.757812 994.808594 563.300781 996.152344 563.300781 L 1109.820312 563.300781 L 1109.820312 540 L 996.152344 540 C 987.585938 540 980.148438 543.023438 974.050781 548.988281 "/>
<path fill-rule="nonzero" fill="rgb(227,230,255)" fill-opacity="1" d="M 721.757812 550.394531 L 704.753906 570.867188 L 687.75 550.394531 C 681.601562 543.496094 674.152344 540 665.597656 540 L 632.269531 540 L 632.269531 563.011719 L 663.945312 563.011719 C 665.546875 563.011719 666.835938 563.640625 667.914062 564.910156 L 689.71875 591.171875 L 667.914062 617.429688 C 666.835938 618.703125 665.546875 619.324219 663.945312 619.324219 L 632.269531 619.324219 L 632.269531 642.332031 L 665.597656 642.332031 C 674.152344 642.332031 681.601562 638.832031 687.75 631.9375 L 704.753906 611.472656 L 721.757812 631.9375 C 727.90625 638.832031 735.359375 642.332031 743.910156 642.332031 L 777.238281 642.332031 L 777.238281 619.324219 L 745.566406 619.324219 C 743.960938 619.324219 742.675781 618.703125 741.59375 617.429688 L 719.792969 591.171875 L 741.59375 564.910156 C 742.675781 563.640625 743.960938 563.011719 745.566406 563.011719 L 777.238281 563.011719 L 777.238281 540 L 743.910156 540 C 735.359375 540 727.90625 543.496094 721.757812 550.394531 "/>
<path fill-rule="nonzero" fill="rgb(32.499695%, 36.499023%, 86.299133%)" fill-opacity="1" d="M 448.925781 476.011719 L 428.667969 476.011719 L 448.925781 455.757812 L 448.925781 437.667969 L 430.789062 437.667969 L 410.578125 457.878906 L 410.578125 437.667969 L 384.96875 437.667969 L 384.96875 457.90625 L 364.730469 437.667969 L 346.59375 437.667969 L 346.59375 455.757812 L 366.851562 476.011719 L 346.59375 476.011719 L 346.59375 501.625 L 366.832031 501.625 L 390.777344 477.679688 C 391.84375 476.613281 393.289062 476.011719 394.796875 476.011719 L 428.667969 476.011719 L 404.722656 499.960938 C 403.65625 501.027344 402.210938 501.625 400.699219 501.625 L 366.832031 501.625 L 346.59375 521.867188 L 346.59375 540 L 364.683594 540 L 384.96875 519.714844 L 384.96875 540 L 410.578125 540 L 410.578125 519.742188 L 430.839844 540 L 448.925781 540 L 448.925781 521.867188 L 428.6875 501.625 L 448.925781 501.625 Z M 448.925781 476.011719 "/>
</svg>
